<svg xmlns="http://www.w3.org/2000/svg" viewBox="0 0 64 64" width="64" height="64">
  <!-- Bowl -->
  <ellipse cx="32" cy="42" rx="28" ry="12" fill="#F5F0EB" stroke="#C4956A" stroke-width="2"/>
  <path d="M4 42 Q4 56 32 56 Q60 56 60 42" fill="#E8DDD4" stroke="#C4956A" stroke-width="2"/>
  <!-- Broth -->
  <ellipse cx="32" cy="42" rx="24" ry="9" fill="#D4A574"/>
  <!-- Noodles -->
  <path d="M18 40 Q22 36 26 40 Q30 44 34 40 Q38 36 42 40" stroke="#F5E6D3" stroke-width="2.5" fill="none" stroke-linecap="round"/>
  <path d="M20 43 Q24 39 28 43 Q32 47 36 43 Q40 39 44 43" stroke="#F5E6D3" stroke-width="2" fill="none" stroke-linecap="round"/>
  <!-- Beef slices -->
  <ellipse cx="24" cy="38" rx="5" ry="3" fill="#8B4513" opacity="0.8"/>
  <ellipse cx="38" cy="37" rx="4" ry="2.5" fill="#A0522D" opacity="0.8"/>
  <!-- Herbs/green onion -->
  <circle cx="30" cy="36" r="1.5" fill="#228B22"/>
  <circle cx="34" cy="35" r="1" fill="#228B22"/>
  <circle cx="28" cy="35" r="1" fill="#2E8B57"/>
  <circle cx="36" cy="38" r="1.2" fill="#228B22"/>
  <!-- Steam -->
  <path d="M22 28 Q20 22 24 18" stroke="#DDD" stroke-width="1.5" fill="none" stroke-linecap="round" opacity="0.6"/>
  <path d="M32 26 Q30 20 34 16" stroke="#DDD" stroke-width="1.5" fill="none" stroke-linecap="round" opacity="0.6"/>
  <path d="M42 28 Q40 22 44 18" stroke="#DDD" stroke-width="1.5" fill="none" stroke-linecap="round" opacity="0.6"/>
  <!-- Chopsticks -->
  <line x1="44" y1="14" x2="30" y2="38" stroke="#8B6914" stroke-width="2" stroke-linecap="round"/>
  <line x1="48" y1="14" x2="34" y2="38" stroke="#A0781E" stroke-width="2" stroke-linecap="round"/>
</svg>
